PathFileType	4	(X/Y/Z)	C:\Users\WrightLab\Desktop\Jo\P5V19.trc
DataRate	CameraRate	NumFrames	NumMarkers	Units	OrigDataRate	OrigDataStartFrame	OrigNumFrames
100.00	100.00	       13	19	mm	100.00	1	       705
Frame#	Time	Headset_Front			Headset_Back			Headset_Left			Headset_Right			Left_Shoulder			Right_Shoulder			Sternum			C7			Left Elbow			Right Elbow			Left Wrist			Right Wrist			Left ASIS			Right ASIS			S2			Left Knee			Right Knee			Left Ankle			Right Ankle			
		X1	Y1	Z1	X2	Y2	Z2	X3	Y3	Z3	X4	Y4	Z4	X5	Y5	Z5	X6	Y6	Z6	X7	Y7	Z7	X8	Y8	Z8	X9	Y9	Z9	X10	Y10	Z10	X11	Y11	Z11	X12	Y12	Z12	X13	Y13	Z13	X14	Y14	Z14	X15	Y15	Z15	X16	Y16	Z16	X17	Y17	Z17	X18	Y18	Z18	X19	Y19	Z19	

1	0.000	-218.72748	1592.19421	-940.91962	-118.47491	1514.67285	-1230.24365							-114.42935	1322.64465	-1012.80896										204.61174	1209.59448	-1149.80054	-410.20926	1194.07898	-1184.00098	208.85190	1017.98590	-997.76880	-391.97476	1011.90942	-1015.08838	12.43291	926.82397	-1002.81891	-252.65453	951.21863	-1006.93433				62.64903	479.08817	-1055.10449	-303.30399	480.16422	-1066.15942	-16.56747	69.80725	-1185.44592	-300.69116	79.58562	-1163.87292	
2	0.010	-218.63086	1592.17151	-940.90448	-118.18993	1514.65540	-1229.59082							-113.47592	1322.29529	-1012.24640										205.43604	1208.88916	-1147.73511	-409.98871	1194.01721	-1183.70508	209.23915	1018.45764	-998.09149	-391.83386	1011.72211	-1015.40790	12.57429	926.98608	-1001.97064	-252.52158	951.21729	-1007.22021				62.64903	479.08817	-1055.10449	-302.92371	480.10590	-1066.18115	-16.06829	69.42902	-1185.12427	-300.69974	79.60799	-1163.87756	
3	0.020	-218.44656	1592.30005	-940.43903	-117.95381	1514.48035	-1228.93970							-113.57027	1322.04749	-1011.77582										205.64630	1208.95813	-1147.61194	-409.76126	1193.96143	-1183.65637	209.60973	1019.03821	-998.43024	-391.84027	1011.81769	-1015.12152	12.64106	927.04950	-1001.56891	-251.99147	950.79285	-1007.16638				62.64903	479.08817	-1055.10449	-301.77719	479.82123	-1066.17944	-16.77747	69.47756	-1184.97205	-300.68213	79.59256	-1163.87292	
4	0.030	-218.32101	1591.91724	-939.61682	-117.71210	1514.84326	-1228.80872							-113.57027	1322.04749	-1011.77582										205.82007	1209.02820	-1147.44800	-409.23459	1193.77051	-1183.13489	209.45935	1019.01239	-997.63220	-391.24835	1011.41937	-1015.10083	13.40548	925.66626	-1003.13226	-251.84035	950.87683	-1007.26526				62.86164	479.22903	-1055.28345	-301.75461	479.80032	-1066.17188	-16.56747	69.80725	-1185.44592	-300.69620	79.60938	-1163.87732	
5	0.040	-218.22391	1591.81262	-939.31012	-117.50011	1514.92297	-1228.47693							-113.57027	1322.04749	-1011.77582										206.05699	1209.11133	-1147.28406	-409.06433	1193.76733	-1183.09485	209.66951	1019.00110	-997.46149	-390.75714	1011.06976	-1014.92712	13.49310	925.73242	-1002.60358	-251.78375	950.78650	-1007.23877				62.80221	478.91324	-1054.72815	-301.67996	479.98270	-1065.81470	-16.06829	69.42902	-1185.12427	-300.68277	79.60666	-1163.87524	
6	0.050	-218.11008	1591.81567	-939.01886	-117.24133	1515.28394	-1228.34412							-113.57027	1322.04749	-1011.77582													-408.91129	1193.74988	-1183.07166	209.99396	1019.15051	-997.01648	-390.57468	1011.13519	-1014.77863	13.58378	925.82391	-1002.05811	-251.82483	950.45441	-1007.79968				62.46885	478.58344	-1054.58020	-302.37112	480.45868	-1065.32715	-16.06829	69.42902	-1185.12427	-300.68967	79.61827	-1163.87793	
7	0.060	-217.91682	1591.84912	-938.24731	-116.84208	1515.03113	-1227.01733							-112.56851	1321.70398	-1011.69269													-408.75134	1193.64209	-1182.57861	210.00366	1019.15222	-997.01300	-390.54654	1010.98761	-1014.31012	13.64467	925.88898	-1001.69208	-251.77422	950.29950	-1008.13580				62.10337	478.31531	-1053.74426	-301.65582	480.10864	-1065.46899	-16.33590	69.24109	-1184.80933	-300.68231	79.62847	-1163.87854	
8	0.070	-217.84164	1591.83911	-937.88086	-116.57429	1515.07617	-1226.59058							-112.65665	1321.52368	-1011.61932													-408.52347	1193.67419	-1182.10486	210.25890	1019.43921	-996.49603	-390.37894	1010.55365	-1013.55817	14.40595	925.29785	-1003.67834	-251.72858	950.26031	-1008.11884				61.88115	478.28970	-1053.61780	-301.90576	481.03278	-1064.15588	-16.33590	69.24109	-1184.80933	-301.16843	80.36123	-1163.95117	
9	0.080	-217.76305	1591.80334	-937.16870	-116.25080	1515.45410	-1226.44580							-112.65665	1321.52368	-1011.61932													-408.29303	1193.55542	-1181.56409	210.27808	1019.45300	-996.49133	-389.91190	1010.48975	-1013.65845	15.13765	924.52545	-1005.65381	-250.82416	949.70001	-1008.48413				61.54033	478.20142	-1053.08728	-301.51727	481.51602	-1063.08032	-16.33590	69.24109	-1184.80933	-301.17239	80.35687	-1163.95105	
10	0.090	-217.70764	1591.80652	-936.85272	-115.85426	1515.44446	-1225.47656							-111.47926	1321.15564	-1011.13983													-408.01889	1193.22827	-1181.31775	210.30132	1019.45660	-996.48285	-389.52371	1010.51648	-1013.56940	15.17187	924.57745	-1005.44891	-250.21548	949.47205	-1008.51166				61.53569	478.45679	-1052.90491	-301.25046	481.80841	-1062.36975	-15.38876	69.17755	-1185.01062	-300.97452	80.51115	-1164.13721	
11	0.100	-217.65688	1591.49792	-935.84991	-115.58412	1515.53967	-1225.41895							-111.48403	1320.75562	-1011.03448													-407.38971	1193.07581	-1181.02905	210.37360	1019.56348	-996.32471	-389.46368	1010.49866	-1013.54053	15.17558	924.50403	-1005.42041	-250.22533	949.21326	-1008.81140				61.55624	478.77396	-1052.87329	-300.35727	481.57950	-1061.92346	-16.33590	69.24109	-1184.80933	-300.86230	80.78225	-1163.69727	
12	0.110	-217.62425	1591.48401	-935.26849	-115.13101	1515.47388	-1224.11719							-110.72696	1320.18091	-1009.63367										224.12811	1236.10522	-1052.29736	-407.11755	1193.00269	-1180.68945	210.08388	1019.51172	-995.83105	-389.34741	1010.50372	-1013.26263	15.87431	923.50055	-1007.21997	-249.19170	948.39917	-1009.14435				60.89448	479.04156	-1052.06165	-298.73190	481.37680	-1060.01917	-16.06829	69.42902	-1185.12427	-300.74902	81.02266	-1163.21777	
13	0.120	-217.65143	1591.46472	-934.92499	-114.78612	1515.37952	-1223.25598							-109.67824	1319.24280	-1008.69012										224.12811	1236.10522	-1052.29736	-406.68878	1193.11841	-1180.53796	210.08453	1019.51105	-995.83063	-389.02521	1010.67731	-1012.98083	15.88744	923.45270	-1007.13605	-249.14148	948.29291	-1009.11749				60.53168	478.95782	-1051.63708	-298.08636	481.53699	-1058.71631	-16.06829	69.42902	-1185.12427	-300.74796	81.03167	-1163.21912	
